#N canvas 1 82 450 300 10;
#X obj 292 114 phasor~;
#X obj 292 146 cos~;
#X obj 83 131 samphold~;
#X obj 84 93 sig~;
#X msg 84 60 0;
#X obj 71 195 phasor~;
#X obj 131 179 snapshot~;
#X obj 166 153 metro 1;
#X obj 71 217 cos~;
#X floatatom 267 43 5 0 0 0 - - -, f 5;
#X floatatom 19 123 5 0 0 0 - - -, f 5;
#X msg 18 101 500;
#X msg 267 14 400;
#X connect 0 0 1 0;
#X connect 0 0 2 1;
#X connect 2 0 6 0;
#X connect 3 0 2 0;
#X connect 4 0 3 0;
#X connect 5 0 8 0;
#X connect 6 0 5 1;
#X connect 7 0 6 0;
#X connect 9 0 0 0;
#X connect 10 0 5 0;
#X connect 11 0 10 0;
#X connect 12 0 9 0;
